<svg width="387" height="439" viewBox="0 0 387 439" fill="none" xmlns="http://www.w3.org/2000/svg">
<path d="M386.916 0L351.667 394.879L193.221 438.805L35.2117 394.941L0 0H386.916Z" fill="#264DE4"/>
<path d="M321.49 369.734L351.613 32.2922H193.458V405.23L321.49 369.734Z" fill="#2965F1"/>
<path d="M80.7222 178.77L85.0635 227.207H193.458V178.77H80.7222Z" fill="#EBEBEB"/>
<path d="M193.458 80.7306H193.291H71.999L76.4022 129.169H193.458V80.7306Z" fill="#EBEBEB"/>
<path d="M193.458 354.964V304.569L193.246 304.625L139.3 290.059L135.852 251.427H109.638H87.2278L94.0139 327.482L193.235 355.026L193.458 354.964Z" fill="#EBEBEB"/>
<path d="M252.937 227.207L247.314 290.028L193.291 304.609V355.003L292.591 327.482L293.32 319.298L304.702 191.777L305.884 178.77L314.628 80.7306H193.291V129.169H261.545L257.137 178.77H193.291V227.207H252.937Z" fill="white"/>
</svg>
