<svg width="329" height="329" viewBox="0 0 329 329" fill="none" xmlns="http://www.w3.org/2000/svg">
<g clip-path="url(#clip0_116_81)">
<rect width="329" height="329" fill="#D9D9D9"/>
<path d="M120.079 198.378C111.575 191.687 102.5 185.276 96.2999 176.242C83.2502 160.311 73.2056 141.87 66.3384 122.488C62.1857 109.884 60.7649 96.3711 55.409 84.256C49.8136 75.454 56.3727 65.8388 66.0128 63.0425C70.3013 62.2161 77.8476 58.167 68.739 61.064C60.5707 67.0536 59.7837 55.6219 68.1578 54.8976C73.873 54.1398 75.9771 49.4628 74.0204 45.2531C67.8833 41.2493 88.8967 36.8571 78.3221 30.885C67.3138 19.0035 93.727 16.7168 87.2088 30.2118C85.6508 40.5879 105.671 28.3063 101.022 40.29C105.746 46.046 118.705 41.6027 118.379 49.6731C125.258 50.1462 127.619 55.93 134.07 56.3753C140.767 59.3979 152.894 61.7765 155.168 69.3169C148.531 74.5706 133.164 58.4634 132.422 73.0082C134.43 94.4992 133.917 116.637 141.777 137.101C145.495 149.491 154.513 159.244 162.652 168.895C170.443 178.346 180.996 185.003 191.753 190.604C201.188 195.053 211.358 198.001 221.642 199.856C225.811 196.667 233.174 184.808 239.676 189.805C239.99 195.43 226.77 201.555 239.056 200.933C246.276 198.755 251.279 206.511 257.222 199.512C262.698 205.999 279.98 195.371 276.085 208.628C270.815 212.028 263.131 209.973 257.856 214.652C249.157 210.305 242.232 218.536 232.599 217.497C221.905 219.413 211.02 220.184 200.179 220.2C182.388 218.797 164.222 218.204 147.298 212.01C137.762 209.239 128.459 203.808 120.079 198.378ZM135.103 204.892C144.411 208.913 153.516 213.156 163.719 214.44C179.907 216.687 196.624 220.155 212.869 216.995C205.517 213.676 197.914 218.285 190.59 214.622C181.807 216.51 172.378 214.138 163.445 212.968C153.292 208.446 142.331 205.337 132.822 199.461C120.935 195.122 138.965 205.029 142.176 205.834C149.602 210.048 134.008 203.671 131.806 201.92C125.584 198.429 124.791 199.159 131.191 202.701C132.479 203.455 133.752 204.248 135.103 204.892ZM117.386 192.372C126.41 195.714 117.347 186.029 113.218 186.588C111.386 183.411 106.219 181.403 109.863 179.698C103.31 181.974 102.996 171.045 99.9167 172.609C92.9809 170.418 97.2183 162.66 88.9537 157.893C88.2002 152.873 80.746 148.521 78.3732 140.952C77.3234 137.074 69.948 125.946 74.4775 136.303C78.3323 146.273 85.1149 154.818 90.7614 163.345C95.1419 171.467 100.321 179.961 108.301 185.026C110.994 187.609 113.588 191.562 117.386 192.372ZM91.401 163.836C93.0495 166.784 91.7134 162.472 91.401 163.836ZM128.196 196.376C130.192 195.481 125.321 195.247 128.196 196.376ZM133.089 198.162C132.582 195.697 130.854 199.542 133.089 198.162ZM139.222 200.717C142.136 197.938 134.722 198.965 139.222 200.717ZM149.728 206.574C151.502 203.956 144.052 205.588 149.728 206.574ZM129.554 192.509C134.082 189.577 123.696 192.469 129.554 192.509ZM134.151 194.802C134.019 193.256 132.514 195.497 134.151 194.802ZM157.131 209.147C160.827 211.48 178.71 214.257 167.513 210.105C165.635 210.499 146.751 204.76 157.131 209.147ZM120.65 180.73C120.291 179.179 114.911 179.013 120.65 180.73ZM131.344 186.971C134.133 185.026 125.566 185.47 131.344 186.971ZM140.345 192.486C144.343 190.981 133.866 190.975 140.345 192.486ZM116.291 175.99C120.626 179.315 133.78 176.418 122.931 174.006C117.997 171.376 106.874 169.574 114.456 175.592L116.291 175.99ZM146.442 194.392C148.25 191.316 138.867 192.634 146.442 194.392ZM137.281 187.113C147.879 190.107 128.367 180.405 134.665 186.006L136.062 186.639L137.281 187.113ZM155.649 197.728C165.688 197.824 146.58 196.342 155.649 197.728ZM112.43 170.183C112.036 168.313 109.955 170.338 112.43 170.183ZM172.629 207.253C172.897 203.877 169.354 209.769 172.629 207.253ZM129.564 180.673C128.954 178.893 126.428 180.599 129.564 180.673ZM113.383 169.009C119.144 168.662 105.489 166.471 113.383 169.009ZM94.2118 156.62C93.4934 153.854 87.9432 151.652 94.2118 156.62ZM144.537 188.557C144.04 188.818 143.483 187.352 144.537 188.557ZM175.856 207.779C175.76 205.936 174.151 208.474 175.856 207.779ZM141.765 185.693C142.331 183.32 136.849 184.973 141.765 185.693ZM118.43 170.903C122.72 170.446 111.557 168.005 118.43 170.903ZM157.902 195.43C164.587 192.782 151.388 194.14 157.902 195.43ZM137.373 181.495C145.073 182.487 128.208 176.253 135.679 180.936L137.373 181.495ZM164.135 197.95C171.328 193.656 168.956 208.018 176.337 199.165C183.614 193.85 170.051 205.736 179.018 200.113C185.508 195.771 195.09 202.171 201.142 204.254C205.494 204.042 209.727 208.018 214.192 205.598C222.782 203.283 197.39 202.166 204.045 198.064C196.185 200.352 190.379 195.338 186.511 190.302C177.693 188.265 167.501 183.759 163.097 175.951C161.301 173.025 165.688 176.367 161.547 171.576C156.236 166.853 153.584 161.485 150.018 155.742C145.758 153.471 145.255 146.781 144.827 155.52C144.863 150.004 139.683 146.29 138.417 147.831C138.394 142.52 143.962 145.183 140.066 141.254C139.228 135.749 136.467 130.012 135.639 123.795C134.351 120.8 135.456 114.384 131.236 121.165C129.701 128.334 130.728 112.359 133.118 117.623C136.255 112.251 131.988 112.883 131.817 113.625C133.86 109.091 133.112 102.656 131.281 105.109C132.371 100.3 133.004 87.4158 129.656 89.7025C131.686 84.6722 133.507 66.693 124.687 73.55C121.117 73.6011 114.929 74.8451 112.008 76.2995C121.174 81.3532 111.084 78.1247 107.348 77.3202C106.863 81.9971 103.167 79.9777 98.5471 80.023C105.928 80.9356 94.9536 87.5692 90.7278 84.9919C85.2288 87.6159 95.4676 94.175 90.8359 96.2047C91.4068 99.2564 82.4165 95.0993 83.1188 102.161C77.7848 99.9121 82.3887 110.533 85.0579 106.94C94.133 109.399 91.4462 114.994 91.674 120.315C90.1963 123.412 84.3731 113.032 90.3788 113.511C85.6391 105.816 85.1382 110.728 81.2016 114.304C80.289 114.561 91.2403 119.391 84.3673 121.775C90.4139 122.711 90.5906 128.004 91.8229 131.353C95.4559 135.139 94.7083 127.171 99.0611 131.724C96.3057 127.667 84.4812 120.298 94.0015 122.66C93.9504 118.582 92.2785 115.291 95.1989 115.37C98.0915 110.139 92.1705 128.272 98.6843 121.622C100.486 120.835 100.937 116.386 104.178 122.044C108.882 126.676 105.877 130.028 99.2377 125.785C100.423 129.818 108.119 131.255 106.67 137.558C108.203 143.103 110.348 141.06 112.219 140.74C113.685 146.125 114.519 142.167 114.587 139.6C121.3 141.038 119.726 145.007 121.83 147.78C126.456 149.866 115.208 133.628 123.148 142.897C131.503 150.443 126.285 153.591 118.785 152.382C123.531 152 125.058 158.8 130.997 158.56C136.41 161.137 140.078 171.029 130.746 166.91C127.511 163.989 116.052 160.39 125.413 165.94C134.048 169.944 140.916 172.334 149.249 177.36C155.209 181.615 157.787 186.491 160.045 187.456C155.033 189.85 144.943 185.544 152.436 184.227C147.76 183.377 142.501 181.01 146.978 186.834C150.788 190.017 160.467 189.68 162.208 190.039C160.736 193.279 158.21 193.536 162.265 193.787C157.741 196.199 163.719 196.576 164.135 197.95ZM154.884 171.822C152.128 168.941 151.416 163.551 154.393 168.238C155.922 168.854 159.282 177.052 154.884 171.822ZM185.018 190.963C186.735 190.849 185.069 192.268 185.018 190.963ZM150.538 164.76C151.53 168.119 150.429 160.407 150.538 164.76ZM147.543 160.733C151.906 162.627 144.076 154.042 147.543 160.733ZM111.243 135.682C113.28 135.139 112.248 139.16 111.243 135.682ZM140.134 151.338C141.6 155.275 141.383 146.644 140.134 151.338ZM119.726 137.147C122.732 139.578 118.289 134.558 119.726 137.147ZM137.236 142.76C133.956 135.413 139.564 138.744 137.966 143.963L137.236 142.76ZM107.035 122.619C105.569 120.207 103.145 113.134 103.926 110.973C104.627 114.492 111.404 126.111 107.245 115.787C102.655 107.134 112.739 118.592 113.777 120.755C114.262 122.9 110.941 120.168 113.188 125.204C109.088 119.471 110.77 128.37 107.035 122.619ZM97.7031 116.186C99.8364 120.03 98.0857 110.579 97.7031 116.186ZM101.901 117.634C105.295 123.532 103.903 113.403 101.901 117.634ZM91.7996 109.821C88.3258 106.363 85.8099 103.181 91.9646 107.676C94.3315 107.766 86.6948 100.438 92.5355 105.348C98.6727 106.467 95.5639 115.416 91.7996 109.821ZM97.1044 109.684C99.1239 107.682 98.1762 111.652 97.1044 109.684ZM100.372 110.728C104.086 113.134 97.3088 104.995 100.372 110.728ZM93.8818 104.528C83.7803 95.5315 106.572 109.227 95.5303 106.192L93.8818 104.528ZM122.828 121.342C118.454 118.724 121.665 102.891 123.16 113.717C127.409 112.341 122.925 119.312 126.09 119.243C125.595 123.64 124.175 125.221 122.828 121.342ZM133.534 127.673C134.435 130.937 133.962 122.9 133.534 127.673ZM131.676 125.83C132.155 123.795 131.721 128.232 131.676 125.83ZM95.8603 101.572C89.3698 92.617 114.723 110.63 100.019 103.843C98.4843 103.438 96.6313 103.295 95.8603 101.572ZM116.48 112.502C117.849 113.75 115.865 104.961 116.48 112.502ZM132.131 122.545C133.34 118.25 132.223 125.386 132.131 122.545ZM96.8591 98.1555C100.715 97.329 112.841 104.926 101.707 100.324C100.47 98.9542 97.8287 99.5762 96.8591 98.1555ZM129.98 114.663C130.392 106.952 132.286 110.06 129.998 115.77L129.98 114.663ZM99.7284 95.4702C101.302 93.1646 95.5522 85.0489 100.555 92.5601C102.717 94.2772 106.812 95.4352 103.196 96.1594C108.882 101.174 101.811 97.5174 99.7284 95.4702ZM128.344 112.256C129.428 103.472 129.303 117.401 128.344 112.256ZM96.443 87.3589C97.6461 86.8449 97.0811 88.9607 96.443 87.3589ZM103.909 91.8022C107.451 96.2967 105.83 87.7692 103.909 91.8022ZM124.962 103.511C125.36 105.764 124.944 101.967 124.962 103.511ZM123.741 100.814C126.461 104.63 120.821 93.6041 123.741 100.814ZM121.949 96.0849C123.615 99.8274 121.46 93.1076 121.949 96.0849ZM124.87 91.3393C122.862 87.8086 127.403 75.768 127.911 83.2353C125.794 89.0527 127.301 92.3045 128.771 84.5013C131.499 78.3642 128.184 96.6223 124.87 91.3393ZM127.87 73.4361C128.744 72.3628 128.065 74.7298 127.87 73.4361ZM122.858 172.187C123.011 172.842 121.67 171.148 122.858 172.187ZM133.181 177.405C138.924 178.883 138.896 176.515 133.705 175.808C130.916 173.213 122.104 170.458 129.992 175.488C130.512 176.812 132.16 176.777 133.181 177.405ZM112.796 163.864C115.955 166.226 124.711 170.548 117.302 164.766C119.8 161.862 112.521 160.317 114.935 158.372C108.792 154.612 110.085 154.949 114.393 155.069C107.012 151.766 115.459 152.017 115.06 150.323C112.214 149.764 100.92 145.303 107.565 150.688C100.812 147.248 105.956 151.972 103.915 151.475C97.0066 149.593 110.064 156.735 102.82 154.961C106.778 158.097 113.48 163.004 104.49 158.28C103.31 159.985 110.925 162.57 112.796 163.864ZM123.592 170.069C136.718 174.297 117.153 164.896 123.592 170.069ZM178.863 203.551C179.034 200.945 177.071 205.775 178.863 203.551ZM184.544 205.942C187.573 203.01 184.67 210.619 189.563 205.223C189.614 201.361 189.416 199.08 183.94 203.773C182.427 204.613 181.755 208.165 184.544 205.942ZM94.3666 149.309C93.4364 145.652 87.8469 145.668 94.3666 149.309ZM100.429 153.283C98.1762 149.548 92.3924 149.901 100.429 153.283ZM134.944 174.097C138.315 177.091 150.419 176.293 139.034 174.467C137.35 171.975 128.333 172.574 134.944 174.097ZM182.382 203.398C187.567 199.045 177.357 205.337 182.382 203.398ZM193.168 210.807C193.202 209.41 190.933 211.417 193.168 210.807ZM193.186 208.85C198.929 202.77 187.624 209.209 193.186 208.85ZM79.445 136.817C74.5519 129.836 76.4049 126.698 71.6827 120.994C70.7861 116.631 63.5831 106.74 67.9578 117.218C71.9616 123.349 73.1487 132.841 79.445 136.817ZM191.382 206.917C201.953 200.089 187.049 203.946 191.382 206.917ZM199.448 210.077C204.742 205.536 196.1 209.129 199.448 210.077ZM92.5691 141.59C94.0818 139.337 88.6573 141.299 92.5691 141.59ZM197.765 207.92C202.887 204.619 196.585 205.125 196.836 208.222L197.765 207.92ZM128.247 164.103C128.07 161.868 125.539 164.291 128.247 164.103ZM132.542 166.574C131.173 163.812 130.443 167.007 132.542 166.574ZM205.984 210.151C212.549 205.416 202.01 209.243 204.61 211.052L205.984 210.151ZM203.47 208.936C208.82 204.458 197.828 210.921 203.47 208.936ZM216.314 217.486C219.903 215.084 211.951 216.71 216.314 217.486ZM95.8603 139.965C100.669 141.042 115.088 151.811 106.584 140.712C102.227 139.423 104.839 128.774 100.396 130.656C103.379 135.641 102.847 137.757 96.5846 134.621C88.7201 130.776 92.1646 136.52 93.7051 138.106C91.6054 138.585 96.4765 139.925 95.8603 139.965ZM73.9416 122.654C74.8016 119.089 66.007 103.056 69.7888 114.618C71.1512 117.041 71.0095 121.632 73.9416 122.654ZM114.175 147.46C114.056 147.163 111.695 145.389 114.175 147.46ZM120.273 148.881C120.273 145.105 113.531 147.346 120.273 148.881ZM173.148 182.208C172.139 179.629 169.161 182.151 173.148 182.208ZM175.685 184.061C175.309 182.618 174.219 184.341 175.685 184.061ZM196.642 197.265C198.656 195.777 194.126 197.072 196.642 197.265ZM84.8871 125.449C90.6533 123.218 78.7091 123.858 84.8871 125.449ZM168.493 178.118C168.425 174.387 164.814 179.048 168.493 178.118ZM82.6107 120.138C86.3122 118.89 79.1822 119.318 82.6107 120.138ZM93.3561 125.345C93.2933 124.12 92.2216 125.814 93.3561 125.345ZM224.46 205.742C229.222 204.778 240.077 208.165 241.827 204.481C236.044 204.338 221.824 200.397 221.151 205.416L222.417 205.616L224.46 205.742ZM96.773 126.207C96.8591 122.425 93.8249 126.065 96.773 126.207ZM68.517 106.604C67.2335 99.3995 63.6342 105.513 68.517 106.604ZM75.2528 108.298C75.339 105.982 69.0865 106.216 75.2528 108.298ZM79.1033 110.192C78.236 111.326 77.9907 109.289 79.1033 110.192ZM103.338 125.734C104.48 124.684 100.635 124.959 103.338 125.734ZM76.5422 105.925C75.8865 100.483 68.7331 105.109 76.5422 105.925ZM62.7216 96.9581C62.5273 94.4481 61.3753 97.9043 62.7216 96.9581ZM64.7804 95.4074C64.4446 92.4286 63.0121 95.7827 64.7804 95.4074ZM76.1318 102.183C80.9344 100.3 67.3868 98.281 75.1506 101.829L76.1318 102.183ZM228.105 196.056C231.178 193.239 224.203 195.184 228.105 196.056ZM246.465 205.571C247.697 201.932 243.362 206.05 246.465 205.571ZM77.2942 96.2339C77.8023 92.709 73.4845 96.9348 77.2942 96.2339ZM61.1358 85.4081C60.2684 80.4347 60.3882 71.7014 68.6878 74.6509C57.6109 76.8529 76.3596 88.4248 73.9927 79.287C78.6521 79.5163 83.1071 76.5331 80.6599 81.0553C89.8429 80.0463 96.2035 72.0839 105.073 73.2024C111.979 72.284 119.531 71.5933 126.975 68.8102C133.095 68.3707 138.987 61.7824 135.634 57.8749C127.289 57.1682 118.55 58.2122 109.328 60.0491C99.1063 62.1708 89.821 66.2082 79.5078 67.9429C69.4515 69.295 81.5272 71.662 78.6463 72.192C73.4042 74.0114 84.9032 75.2379 77.9673 77.1595C73.6846 76.3448 69.2237 74.8729 71.0548 70.3551C61.4264 71.6109 52.9617 75.603 60.5707 85.4023L61.1358 85.4081ZM84.3454 73.5894C86.5984 65.2737 96.4371 80.4347 88.0411 74.6962C87.0423 73.9428 85.3879 73.3324 84.3454 73.5894ZM84.7834 69.5564C88.0411 67.1325 86.5123 70.9202 84.7834 69.5564ZM88.9187 69.625C89.2165 65.7979 98.3938 71.6503 90.4314 71.0005L88.9187 69.625ZM94.5768 67.35C96.6474 64.9305 95.177 69.4936 94.5768 67.35ZM96.0268 66.3805C99.4714 62.2453 115.516 63.739 103.772 65.9746C100.623 63.6018 98.2112 67.3719 96.0268 66.3805ZM116.97 63.152C127.38 67.1617 116.452 51.8517 116.97 63.152ZM122.915 63.117C125.087 57.4252 131.35 60.8303 123.924 61.9707C124.083 62.5811 123.702 64.9145 122.915 63.117ZM74.9506 93.3135C81.4411 89.3374 68.06 89.8631 74.9506 93.3135ZM79.7531 94.6423C82.0295 92.2242 74.8016 93.661 79.7531 94.6423ZM65.6083 84.6094C69.3157 81.7576 61.2161 83.5259 65.6083 84.6094ZM257.302 204.533C257.41 201.224 254.467 206.02 257.302 204.533ZM237.823 191.236C238.377 187.432 235.319 191.568 237.823 191.236ZM262.658 205.816C267.843 205.834 278.371 204.201 267.09 204.207C265.316 204.481 256.772 204.424 262.658 205.816ZM83.9745 92.3089C88.1725 92.0242 90.5394 87.6831 83.1582 87.9284C71.7221 86.7485 93.2481 91.8475 81.6922 90.3873C80.1415 91.4138 83.8825 92.5951 83.9745 92.3089ZM87.6702 94.1809C87.2307 91.4883 86.3692 95.6118 87.6702 94.1809ZM92.0566 82.4877C93.876 80.2288 89.5348 81.8832 92.0566 82.4877ZM78.0929 59.1526C85.588 56.609 95.8326 53.7455 99.3692 60.4083C95.7698 56.0789 97.9148 51.8123 101.314 58.1494C106.122 64.5553 108.529 55.2349 105.403 53.0841C108.968 57.5099 113.017 59.6038 107.787 53.3644C113.475 46.525 96.4079 54.2595 92.5297 54.1792C90.665 55.0174 73.2626 58.6167 78.0929 59.1526ZM82.4851 50.7463C86.7576 47.5237 97.2636 52.6679 90.5219 47.5398C89.8605 46.9586 75.761 51.4297 82.4851 50.7463ZM98.0623 51.3903C103.059 51.5158 95.9071 44.6705 101.862 47.7734C100.886 44.58 94.9258 43.9813 92.0113 42.7037C90.3628 45.624 95.3639 51.4297 98.0623 51.3903ZM85.2171 37.2499C86.9459 34.9063 82.1828 38.4429 85.2171 37.2499ZM91.5835 38.7729C99.6422 37.7069 89.529 35.3049 89.9568 38.6882L91.5835 38.7729ZM79.6961 29.4759C74.0204 22.0669 90.3686 30.72 84.6009 22.962C79.7473 19.1013 75.0878 27.3148 79.6961 29.4759ZM152.505 68.6905C155.107 64.0807 141.765 62.473 150.754 67.058C151.581 67.3325 151.394 69.0088 152.505 68.6905Z" fill="black"/>
<path d="M99.6734 240.372C99.0984 242.645 98.7413 246.46 98.6075 251.814C98.6075 252.866 98.1338 253.392 97.1845 253.392C96.2344 253.392 95.5735 252.933 95.1992 252.018C94.1822 249.543 93.2184 247.816 92.2999 246.83C91.2159 245.679 89.7749 244.983 87.9776 244.747C86.0457 244.44 81.2325 244.288 73.5371 244.288C71.7751 244.288 70.6206 244.475 70.08 244.85C69.741 245.086 69.5719 245.595 69.5719 246.375V269.411C69.5719 270.191 70.0628 270.562 71.0437 270.53C74.0633 270.495 78.4353 270.29 84.1634 269.919C85.2826 269.782 86.0384 269.418 86.4272 268.824C86.8195 268.231 87.201 266.699 87.5717 264.223C87.8077 262.867 88.6059 262.34 89.962 262.648C91.1138 262.885 91.6083 263.411 91.4383 264.223C90.4882 268.835 90.1808 274.835 90.5198 282.226C90.556 283.106 89.9973 283.582 88.8428 283.65C87.8926 283.752 87.2996 283.243 87.0627 282.124C86.184 277.886 84.5449 275.623 82.1573 275.333C79.767 275.047 75.875 274.902 70.4859 274.902C69.8757 274.902 69.5719 275.121 69.5719 275.562V298.447C69.5719 300.142 70.1966 301.296 71.4506 301.904C72.436 302.413 74.5542 302.871 77.807 303.278C79.4705 303.447 80.1973 304.178 79.9966 305.464C79.7914 306.583 78.3015 307.024 75.5188 306.787C67.4845 306.142 60.8559 306.177 55.6368 306.89C54.1777 307.091 53.4508 306.498 53.4508 305.11C53.4508 304.227 54.1777 303.719 55.6368 303.584C58.9592 303.21 60.6191 300.294 60.6191 294.838V251.305C60.6191 249.07 60.2204 247.349 59.4257 246.145C58.6274 244.941 57.1439 243.846 54.976 242.864C53.6199 242.254 53.1118 241.424 53.4508 240.372C53.6199 239.729 53.892 239.372 54.2627 239.305C54.6017 239.203 55.5021 239.27 56.9567 239.509C59.0939 239.848 64.1295 240.018 72.0608 240.018C81.4196 240.018 89.5028 239.813 96.3193 239.407C98.5894 239.27 99.7267 239.457 99.7267 239.965C99.7267 240.103 99.7096 240.237 99.6734 240.372Z" fill="black"/>
<path d="M132.652 304.927C132.652 306.283 131.889 306.876 130.364 306.706C125.688 306.265 119.889 306.332 112.974 306.908C111.583 307.045 110.729 307.01 110.404 306.809C110.082 306.604 109.923 306.046 109.923 305.128C109.923 304.316 110.845 303.631 112.692 303.069C114.543 302.511 115.464 300.841 115.464 298.062V252.04C115.464 249.292 115.065 247.275 114.271 245.986C113.472 244.698 112.074 243.698 110.075 242.988C109.023 242.614 108.496 242.088 108.496 241.41C108.496 240.393 109.259 239.63 110.785 239.122C113.091 238.376 115.482 237.225 117.957 235.664C119.992 234.442 121.281 233.835 121.82 233.835C123.074 233.835 123.704 234.696 123.704 236.427C123.704 236.293 123.636 237.988 123.498 241.512C123.4 244.867 123.365 248.172 123.4 251.429L123.601 296.839C123.601 298.909 124.11 300.41 125.127 301.342C126.144 302.274 127.891 302.893 130.364 303.197C131.889 303.366 132.652 303.942 132.652 304.927Z" fill="black"/>
<path d="M178.646 301.928C178.646 302.641 177.349 303.715 174.757 305.156C172.162 306.597 170.085 307.317 168.528 307.317C167.203 307.317 166.035 306.674 165.018 305.385C164.001 304.097 163.287 303.454 162.881 303.454C162.577 303.454 160.967 304.149 158.05 305.537C155.137 306.928 152.202 307.625 149.253 307.625C146.474 307.625 144.15 306.809 142.286 305.185C140.251 303.386 139.234 300.946 139.234 297.86C139.234 291.994 145.948 287.791 159.374 285.249C161.677 284.808 162.849 283.875 162.881 282.452L162.984 279.197C163.188 273.637 160.73 270.858 155.61 270.858C154.151 270.858 152.771 272.161 151.464 274.771C150.161 277.385 148.286 278.79 145.845 278.995C143.066 279.263 141.674 278.094 141.674 275.484C141.674 273.856 143.744 271.96 147.879 269.788C152.219 267.518 156.391 266.381 160.391 266.381C167.271 266.381 170.678 269.654 170.611 276.198L170.406 297.147C170.375 299.351 171.308 300.452 173.203 300.452C173.578 300.452 174.291 300.368 175.34 300.198C176.393 300.029 177.003 299.944 177.173 299.944C178.155 299.944 178.646 300.607 178.646 301.928ZM162.984 290.334C163.019 289.486 162.821 288.925 162.397 288.657C161.973 288.385 161.306 288.332 160.391 288.502C152.219 289.96 148.134 292.623 148.134 296.487C148.134 300.385 150.252 302.334 154.49 302.334C156.185 302.334 157.934 302.013 159.728 301.37C161.832 300.622 162.881 299.725 162.881 298.673L162.984 290.334Z" fill="black"/>
<path d="M216.453 296.077C216.453 299.672 215.068 302.529 212.307 304.648C209.546 306.767 205.774 307.826 200.992 307.826C197.807 307.826 194.618 307.487 191.433 306.809C188.685 306.198 187.092 305.64 186.651 305.131C186.379 304.655 186.245 302.335 186.245 298.164C186.245 296.366 186.651 295.434 187.467 295.367C188.279 295.264 188.975 295.706 189.551 296.688C192.093 301.131 196.196 303.352 201.857 303.352C206.635 303.352 209.027 301.689 209.027 298.365C209.027 296.911 208.486 295.688 207.398 294.707C206.211 293.587 203.91 292.281 200.484 290.79C195.533 288.587 192.227 286.655 190.568 284.992C188.769 283.23 187.873 280.856 187.873 277.872C187.873 274.21 189.278 271.364 192.093 269.33C194.703 267.362 198.195 266.381 202.567 266.381C205.315 266.381 207.822 266.599 210.096 267.041C212.537 267.483 213.808 268.023 213.91 268.669C214.179 270.565 214.74 273.313 215.588 276.908C215.69 277.346 215.213 277.703 214.164 277.974C213.045 278.211 212.3 278.024 211.926 277.416C209.249 273.041 205.859 270.855 201.755 270.855C197.111 270.855 194.788 272.346 194.788 275.33C194.788 276.992 195.416 278.313 196.67 279.295C197.789 280.143 200.416 281.468 204.552 283.265C208.892 285.129 211.841 286.807 213.402 288.297C215.436 290.229 216.453 292.824 216.453 296.077Z" fill="black"/>
<path d="M276.28 304.977C276.28 306.163 275.482 306.792 273.889 306.859C271.516 306.894 268.411 307.063 264.584 307.367C262.684 307.741 261.328 307.505 260.515 306.657C255.158 300.894 250.613 294.859 246.884 288.552C246.58 288.011 246.191 287.739 245.715 287.739C245.139 287.739 244.14 288.248 242.717 289.265C241.121 290.145 240.326 291.401 240.326 293.026C240.326 294.18 240.358 295.84 240.428 298.013C240.496 300.181 241.036 301.604 242.053 302.282C242.766 302.759 244.412 303.13 246.986 303.402C248.579 303.606 249.377 304.199 249.377 305.181C249.377 305.962 249.25 306.446 248.996 306.629C248.742 306.816 248.07 306.859 246.986 306.757C243.596 306.453 237.868 306.622 229.799 307.265C227.765 307.435 226.663 307.18 226.493 306.502C226.426 306.266 226.391 305.927 226.391 305.485C226.391 304.436 227.426 303.638 229.495 303.098C231.36 302.621 232.292 300.435 232.292 296.536V252.089C232.292 249.31 232.02 247.378 231.476 246.294C230.731 244.903 229.17 243.818 226.797 243.038C225.681 242.667 225.12 242.141 225.12 241.463C225.12 240.478 225.918 239.715 227.51 239.175C230.053 238.327 232.475 237.158 234.781 235.665C236.646 234.446 237.801 233.835 238.239 233.835C239.631 233.835 240.326 234.714 240.326 236.48C240.326 236.24 240.309 237.921 240.273 241.513C240.241 243.988 240.224 247.311 240.224 251.482L240.326 283.315C240.326 284.197 240.563 284.635 241.036 284.635C241.545 284.635 242.325 284.197 243.377 283.315C246.191 281.111 249.649 278.229 253.749 274.669C254.565 273.822 254.971 273.144 254.971 272.635C254.971 271.721 253.598 271.075 250.854 270.704C249.667 270.566 249.105 269.906 249.172 268.719C249.274 267.533 249.868 267.024 250.952 267.193C253.396 267.533 256.956 267.72 261.631 267.755C264.887 267.787 268.126 267.805 271.347 267.805C272.396 267.84 272.922 268.465 272.922 269.687C272.922 270.838 272.092 271.466 270.432 271.569C267.818 271.668 265.36 272.261 263.058 273.348C259.837 274.804 256.394 277.364 252.732 281.026C252.464 281.231 252.326 281.485 252.326 281.789C252.326 282.262 252.901 283.4 254.057 285.197C258.294 291.638 262.295 296.501 266.056 299.792C268.465 301.859 270.718 302.893 272.819 302.893C274.38 302.893 275.347 303.002 275.718 303.225C276.093 303.444 276.28 304.03 276.28 304.977Z" fill="black"/>
</g>
<defs>
<clipPath id="clip0_116_81">
<rect width="329" height="329" fill="white"/>
</clipPath>
</defs>
</svg>
