<svg width="496" height="484" viewBox="0 0 496 484" fill="none" xmlns="http://www.w3.org/2000/svg">
<path d="M407.701 0.902832H88.2988C39.9308 0.902832 0.720764 40.1129 0.720764 88.4809V395.519C0.720764 443.887 39.9308 483.097 88.2988 483.097H407.701C456.069 483.097 495.279 443.887 495.279 395.519V88.4809C495.279 40.1129 456.069 0.902832 407.701 0.902832Z" fill="#001E36"/>
<path d="M112.082 339.047V127.049C112.082 125.504 112.746 124.727 114.074 124.727C117.608 124.727 120.836 124.675 125.704 124.561C130.566 124.452 135.819 124.341 141.462 124.229C147.103 124.12 153.075 124.009 159.379 123.897C165.681 123.788 171.929 123.733 178.123 123.731C194.929 123.731 209.084 125.832 220.589 130.035C230.966 133.545 240.43 139.325 248.292 146.955C254.956 153.568 260.106 161.548 263.387 170.344C266.49 178.905 268.063 187.945 268.032 197.051C268.032 214.749 263.94 229.347 255.757 240.845C247.519 252.39 235.94 261.132 222.58 265.893C208.645 271.092 193.161 272.856 176.133 272.856C171.265 272.856 167.836 272.8 165.847 272.69C163.857 272.58 160.871 272.525 156.89 272.524V338.716C156.948 339.121 156.911 339.535 156.781 339.924C156.652 340.312 156.433 340.665 156.144 340.955C155.854 341.245 155.501 341.463 155.112 341.593C154.723 341.722 154.31 341.76 153.904 341.702H114.405C112.855 341.702 112.082 340.82 112.082 339.047ZM156.89 164.538V233.684C159.762 233.907 162.416 234.017 164.852 234.015H175.8C183.856 233.988 191.859 232.711 199.522 230.228C206.095 228.276 211.968 224.476 216.442 219.28C220.755 214.195 222.911 207.117 222.912 198.047C223.087 191.629 221.417 185.296 218.1 179.799C214.614 174.484 209.575 170.372 203.669 168.022C195.957 165.024 187.72 163.614 179.45 163.875C174.141 163.875 169.441 163.93 165.35 164.041C161.255 164.155 158.435 164.321 156.89 164.538Z" fill="#31A8FF"/>
<path d="M396.308 221.111C390.073 217.908 383.432 215.564 376.568 214.144C369.004 212.409 361.27 211.518 353.51 211.49C349.312 211.376 345.12 211.879 341.069 212.983C338.49 213.557 336.198 215.026 334.599 217.13C333.518 218.812 332.942 220.77 332.941 222.77C333.001 224.71 333.701 226.576 334.931 228.078C336.869 230.345 339.237 232.206 341.898 233.552C346.628 236.1 351.502 238.371 356.495 240.354C367.63 244.081 378.27 249.15 388.179 255.449C394.93 259.71 400.516 265.581 404.436 272.535C407.732 279.12 409.383 286.406 409.247 293.768C409.445 303.49 406.667 313.04 401.285 321.139C395.522 329.36 387.518 335.751 378.226 339.551C368.159 343.974 355.718 346.186 340.903 346.187C331.491 346.282 322.095 345.393 312.868 343.533C305.599 342.2 298.522 339.971 291.801 336.898C291.076 336.523 290.472 335.95 290.061 335.245C289.65 334.54 289.448 333.732 289.479 332.916V297.086C289.439 296.735 289.495 296.38 289.641 296.058C289.787 295.737 290.018 295.461 290.309 295.261C290.594 295.1 290.921 295.029 291.247 295.059C291.573 295.089 291.882 295.217 292.133 295.427C300.071 300.107 308.689 303.521 317.679 305.546C325.602 307.532 333.73 308.589 341.898 308.697C349.637 308.697 355.333 307.702 358.984 305.712C360.632 304.957 362.027 303.74 362.999 302.21C363.97 300.679 364.477 298.899 364.458 297.086C364.458 294.214 362.8 291.449 359.482 288.792C356.165 286.137 349.418 282.93 339.244 279.17C328.826 275.544 318.949 270.522 309.882 264.241C303.397 259.731 298.057 253.766 294.289 246.823C291.027 240.285 289.377 233.062 289.479 225.756C289.46 216.978 291.872 208.366 296.446 200.873C301.661 192.623 309.15 186.056 318.011 181.963C327.741 177.1 339.906 174.667 354.505 174.664C363.056 174.595 371.598 175.205 380.051 176.489C386.173 177.265 392.158 178.884 397.836 181.299C398.287 181.428 398.701 181.661 399.046 181.977C399.392 182.294 399.659 182.686 399.826 183.124C400.051 183.934 400.162 184.771 400.159 185.612V219.121C400.182 219.51 400.102 219.9 399.927 220.249C399.752 220.598 399.489 220.896 399.163 221.111C398.72 221.332 398.231 221.447 397.736 221.447C397.24 221.447 396.752 221.332 396.308 221.111Z" fill="#31A8FF"/>
</svg>
