<?xml version="1.0" encoding="utf-8"?>
<!-- Generator: Adobe Illustrator 23.1.0, SVG Export Plug-In . SVG Version: 6.00 Build 0)  -->
<svg version="1.1"
	 id="svg2" xmlns:cc="http://creativecommons.org/ns#" xmlns:dc="http://purl.org/dc/elements/1.1/" xmlns:inkscape="http://www.inkscape.org/namespaces/inkscape" xmlns:rdf="http://www.w3.org/1999/02/22-rdf-syntax-ns#" xmlns:sodipodi="http://sodipodi.sourceforge.net/DTD/sodipodi-0.dtd" xmlns:svg="http://www.w3.org/2000/svg"
	 xmlns="http://www.w3.org/2000/svg" xmlns:xlink="http://www.w3.org/1999/xlink" x="0px" y="0px" viewBox="0 0 100.1 101"
	 style="enable-background:new 0 0 100.1 101;" xml:space="preserve">
<style type="text/css">
	.st0{fill:url(#path1948_1_);}
	.st1{fill:url(#path1950_1_);}
</style>
<sodipodi:namedview  bordercolor="#666666" borderopacity="1.0" gridtolerance="10.0" guidetolerance="10.0" height="40mm" id="base" inkscape:current-layer="svg2" inkscape:cx="91.558698" inkscape:cy="47.9926" inkscape:deskcolor="#d1d1d1" inkscape:document-units="pt" inkscape:pagecheckerboard="0" inkscape:pageopacity="0.0" inkscape:pageshadow="2" inkscape:showpageshadow="2" inkscape:window-height="2080" inkscape:window-maximized="0" inkscape:window-width="1976" inkscape:window-x="1092" inkscape:window-y="72" inkscape:zoom="2.1461642" objecttolerance="10.0" pagecolor="#ffffff" showgrid="false" units="mm" width="210mm">
	</sodipodi:namedview>
<linearGradient id="path1948_1_" gradientUnits="userSpaceOnUse" x1="1005.2006" y1="1195.514" x2="1103.2303" y2="1279.8555" gradientTransform="matrix(0.5625 0 0 0.568 -567.9652 -676.1466)">
	<stop  offset="0" style="stop-color:#5A9FD4"/>
	<stop  offset="1" style="stop-color:#306998"/>
</linearGradient>
<path id="path1948" class="st0" d="M49.3,0c-4.1,0-8,0.4-11.5,1C27.6,2.8,25.7,6.6,25.7,13.5v9.2h24.2v3.1H25.8h-9
	c-7,0-13.2,4.2-15.1,12.2c-2.2,9.2-2.3,14.9,0,24.5c1.7,7.2,5.8,12.2,12.8,12.2h8.3v-11c0-7.9,6.8-15,15.1-15h24
	c6.7,0,12.1-5.5,12.1-12.2v-23C74,7.1,68.5,2.2,61.9,1C57.8,0.2,53.5,0,49.3,0z M36.3,7.4c2.5,0,4.6,2,4.6,4.6s-2,4.6-4.6,4.6
	c-2.5,0-4.6-2-4.6-4.6S33.8,7.4,36.3,7.4z"/>
<linearGradient id="path1950_1_" gradientUnits="userSpaceOnUse" x1="1141.312" y1="1330.7582" x2="1106.3057" y2="1281.2303" gradientTransform="matrix(0.5625 0 0 0.568 -567.9652 -676.1466)">
	<stop  offset="0" style="stop-color:#FFD43B"/>
	<stop  offset="1" style="stop-color:#FFE873"/>
</linearGradient>
<path id="path1950" class="st1" d="M77,25.8v10.7c0,8.3-7.1,15.2-15.1,15.3H37.8c-6.6,0-12.1,5.6-12.1,12.2v22.9
	c0,6.5,5.6,10.4,12.1,12.2c7.7,2.3,15,2.6,24.1,0C68,97.4,74,93.9,74,86.9v-9.2H49.9v-3.1H74h12.1c7,0,9.6-4.9,12.1-12.2
	c2.5-7.6,2.4-14.9,0-24.5c-1.7-7-5-12.2-12.1-12.2L77,25.8z M63.4,83.9c2.5,0,4.6,2,4.6,4.6c0,2.5-2,4.6-4.6,4.6
	c-2.5,0-4.6-2-4.6-4.6S60.9,83.9,63.4,83.9z"/>
</svg>
